<?xml version="1.0" standalone="no"?>
<!DOCTYPE svg PUBLIC "-//W3C//DTD SVG 20010904//EN"
 "http://www.w3.org/TR/2001/REC-SVG-20010904/DTD/svg10.dtd">
<svg version="1.0" xmlns="http://www.w3.org/2000/svg"
 width="450.000000pt" height="305.000000pt" viewBox="0 0 450.000000 305.000000"
 preserveAspectRatio="xMidYMid meet">

<g transform="translate(0.000000,305.000000) scale(0.100000,-0.100000)"
fill="#000000" stroke="none">
<path d="M2252 2490 c-12 -12 -22 -24 -23 -28 -7 -67 -4 -130 7 -147 8 -11 14
-45 14 -78 0 -58 15 -102 44 -126 12 -10 17 -9 26 8 6 11 22 32 35 45 21 21
25 35 25 84 0 39 5 64 14 71 18 15 27 49 14 57 -5 3 -7 23 -3 45 6 33 3 42
-19 64 -33 33 -101 35 -134 5z"/>
<path d="M1558 2438 c-48 -28 -56 -52 -60 -175 -3 -82 -7 -106 -22 -122 -11
-12 -24 -21 -31 -21 -7 0 -20 -9 -30 -20 -13 -15 -18 -40 -20 -107 -1 -48 -6
-95 -10 -105 -3 -9 -2 -32 3 -52 13 -46 -2 -277 -22 -344 -13 -44 -13 -52 0
-71 18 -26 69 -28 82 -4 6 10 6 29 1 47 -19 66 -3 156 27 156 7 0 27 30 45 68
l33 67 -2 168 -2 167 44 0 c30 0 48 6 61 20 10 11 21 18 25 15 10 -6 37 -135
51 -245 13 -105 40 -182 74 -208 17 -13 21 -25 18 -48 -5 -29 -11 -33 -84 -59
-78 -27 -129 -30 -182 -9 -15 5 -17 -2 -17 -60 0 -36 -4 -67 -10 -67 -5 -1
-14 -3 -20 -4 -5 -1 -17 -3 -25 -4 -18 -1 -15 -32 17 -176 11 -49 22 -128 24
-174 2 -47 9 -101 14 -120 5 -20 10 -55 10 -78 0 -23 4 -63 10 -90 29 -146 30
-164 14 -194 -15 -30 -11 -68 7 -70 12 -2 33 -2 60 0 21 1 22 4 15 98 -11 161
-17 839 -7 823 25 -43 38 -414 26 -725 -4 -95 10 -125 54 -125 37 0 40 11 24
74 -8 28 -12 67 -9 86 3 19 10 64 15 100 30 207 51 384 51 445 0 106 17 232
35 263 15 26 15 36 0 137 -9 61 -22 178 -29 260 -6 83 -15 155 -19 161 -4 7
-19 15 -34 19 -33 8 -63 33 -63 52 0 8 -5 11 -12 7 -8 -5 -9 0 -4 17 15 45 18
144 7 187 -9 33 -17 43 -39 48 -15 3 -34 8 -42 10 -8 2 -32 -6 -52 -18z"/>
<path d="M860 2348 c-28 -46 -30 -110 -4 -139 8 -8 14 -28 14 -43 0 -28 47
-96 66 -96 19 0 58 65 60 100 2 19 6 63 9 97 10 88 -7 113 -75 113 -46 0 -52
-3 -70 -32z"/>
<path d="M3603 2353 c-12 -2 -34 -18 -48 -35 -29 -35 -28 -67 4 -103 25 -28
41 -81 35 -114 -5 -22 0 -33 26 -54 17 -15 38 -27 45 -27 20 0 45 28 45 51 0
11 11 24 25 31 19 9 25 19 27 47 3 58 -3 105 -14 118 -6 7 -8 26 -5 42 3 15 1
33 -6 40 -10 10 -87 13 -134 4z"/>
<path d="M2975 2288 c-44 -52 -72 -207 -44 -235 9 -9 18 -8 36 4 34 22 41 8
14 -28 l-23 -31 22 -32 21 -31 -25 28 c-14 15 -26 37 -26 48 0 10 -4 19 -10
19 -5 0 -10 -5 -10 -11 0 -5 -5 -7 -10 -4 -13 8 -76 -30 -86 -53 -4 -9 -12
-69 -16 -132 -4 -63 -11 -137 -14 -165 -10 -80 -8 -145 5 -158 6 -6 11 -23 11
-37 0 -14 4 -30 10 -36 10 -10 39 -110 65 -224 36 -158 55 -248 61 -295 3 -27
15 -71 26 -96 16 -39 18 -53 9 -87 -6 -22 -9 -67 -6 -99 10 -99 12 -103 44
-103 38 0 43 17 35 112 -6 68 -4 85 16 129 15 37 28 103 42 228 11 97 33 234
48 305 25 112 33 133 61 162 33 34 36 52 31 164 -1 19 -2 42 -2 50 0 8 -3 73
-8 144 -8 127 -8 129 -39 156 -22 20 -28 31 -20 39 8 8 6 26 -6 64 -9 30 -17
66 -17 81 0 36 -21 74 -65 116 -47 46 -96 48 -130 8z m151 -246 c6 -12 19 -31
29 -42 22 -24 9 -26 -25 -3 -14 9 -26 17 -27 17 -1 1 -5 14 -9 30 -5 22 -4 28
7 24 8 -3 19 -14 25 -26z m41 -339 c-3 -10 -5 -2 -5 17 0 19 2 27 5 18 2 -10
2 -26 0 -35z m12 -133 l1 -35 -15 29 c-16 31 -19 58 -8 70 10 10 21 -22 22
-64z m-162 -287 c-3 -10 -5 -2 -5 17 0 19 2 27 5 18 2 -10 2 -26 0 -35z"/>
<path d="M2393 2188 c4 -16 10 -39 13 -53 5 -19 3 -25 -7 -23 -18 4 -15 -196
6 -332 17 -119 21 -172 12 -187 -13 -21 -110 -37 -148 -24 l-35 11 2 270 c2
228 0 270 -12 270 -18 0 -18 5 2 36 9 13 14 27 11 30 -3 3 -32 -8 -66 -25
l-60 -31 -25 -82 c-57 -190 -58 -198 -41 -310 9 -57 18 -123 22 -146 7 -52 26
-63 54 -31 l21 24 -7 -25 c-13 -46 -24 -164 -24 -259 -1 -107 11 -217 39 -371
11 -58 22 -144 26 -191 6 -85 6 -86 -25 -121 -18 -21 -31 -47 -31 -62 0 -24 4
-26 39 -26 33 0 43 5 57 29 10 17 29 32 42 36 l25 6 -8 122 c-4 67 -11 158
-16 202 -18 164 -7 363 25 423 l14 26 6 -40 c10 -62 25 -294 20 -307 -5 -14
-14 -236 -13 -325 0 -53 6 -73 31 -113 33 -54 52 -69 79 -62 27 7 24 46 -7 92
-24 37 -25 42 -14 98 27 140 32 175 40 298 5 72 13 153 19 180 5 28 13 101 17
163 7 108 8 113 33 125 16 7 27 22 29 37 1 14 19 65 39 113 l36 88 -12 92 c-7
51 -16 130 -21 177 -14 134 -15 137 -93 170 -38 16 -76 35 -84 42 -14 11 -16
10 -10 -14z m-253 -401 c0 -18 -2 -19 -10 -7 -13 20 -13 43 0 35 6 -3 10 -16
10 -28z m367 -54 c-3 -10 -5 -4 -5 12 0 17 2 24 5 18 2 -7 2 -21 0 -30z m-1
-200 c16 -17 21 -30 15 -36 -9 -9 -60 37 -61 56 0 15 22 6 46 -20z"/>
<path d="M1010 2092 c0 -12 -4 -31 -9 -44 -5 -13 -19 -59 -31 -103 -12 -44
-26 -84 -30 -89 -8 -8 -43 90 -55 158 -4 20 -11 39 -16 42 -5 3 -9 14 -9 25 0
18 -4 18 -57 -11 -32 -16 -64 -30 -70 -30 -8 0 -13 -14 -14 -32 -6 -192 -9
-215 -58 -393 -16 -60 -37 -140 -46 -177 l-17 -66 -46 -9 -47 -8 -3 -123 c-2
-97 0 -123 11 -128 13 -5 176 19 220 32 14 4 17 -1 17 -35 0 -22 5 -43 10 -46
6 -4 8 -11 4 -16 -3 -5 6 -49 20 -97 32 -109 38 -237 13 -273 -20 -28 -22 -59
-4 -60 59 -5 84 10 90 54 l4 32 1 -33 c2 -42 57 -99 98 -102 65 -5 71 11 23
61 -34 35 -34 30 -4 169 8 41 22 118 30 170 51 324 97 516 126 525 22 7 53
133 53 215 0 66 -18 222 -36 307 l-12 62 -61 15 c-33 7 -68 17 -77 21 -14 5
-18 2 -18 -13z m-50 -379 c0 -10 11 -38 25 -62 14 -23 25 -45 25 -47 0 -2 -20
-4 -45 -4 -51 0 -51 0 -33 77 12 51 28 71 28 36z m-200 -144 c-8 -59 -8 -84 0
-94 20 -24 -5 -84 -35 -85 -19 0 -38 70 -27 94 6 11 23 58 39 104 15 45 29 78
31 72 2 -6 -1 -47 -8 -91z m-120 -183 c0 -3 -4 -8 -10 -11 -5 -3 -10 -1 -10 4
0 6 5 11 10 11 6 0 10 -2 10 -4z m294 -193 c-2 -76 -9 -174 -15 -218 -6 -44
-9 -99 -6 -123 3 -23 1 -44 -3 -47 -8 -5 -20 92 -20 163 0 25 -5 60 -12 78 -9
26 -8 42 5 86 8 29 18 80 22 113 3 33 9 76 12 95 12 72 22 -7 17 -147z"/>
<path d="M3555 2060 c-3 -5 -31 -17 -61 -27 -31 -9 -58 -22 -59 -28 -16 -60
-35 -177 -39 -247 -5 -83 -3 -90 26 -145 17 -32 40 -71 50 -86 l20 -28 21 33
c13 21 22 28 25 20 2 -8 -1 -19 -7 -25 -17 -17 -14 -77 4 -77 8 0 15 -3 16 -7
17 -178 29 -334 32 -433 2 -69 12 -170 21 -225 10 -59 14 -119 11 -146 -8 -56
7 -72 62 -67 46 4 53 25 29 95 -9 25 -14 49 -11 52 2 4 7 122 10 262 3 140 9
274 13 299 l8 45 7 -44 c4 -24 14 -55 21 -70 9 -17 13 -50 11 -91 -8 -172 -17
-279 -27 -318 -10 -38 -9 -45 11 -66 11 -12 21 -29 21 -38 0 -24 34 -48 68
-48 41 0 48 14 23 46 -27 35 -27 105 -1 249 11 60 20 127 20 148 l0 40 53 -7
c28 -4 71 -10 95 -13 l42 -6 0 121 c0 126 -2 132 -48 132 -31 0 -43 16 -47 59
-5 53 -19 71 -57 71 -17 0 -27 4 -23 10 3 6 15 10 27 10 18 0 20 4 14 33 -13
59 -47 271 -56 347 -14 120 -21 132 -85 151 l-56 17 16 -24 c9 -15 11 -24 5
-24 -7 0 -9 -9 -4 -22 9 -30 6 -120 -5 -131 -9 -9 -51 91 -51 122 0 16 -18 31
-36 31 -2 0 -4 -39 -4 -87 0 -97 -7 -98 -40 -6 -12 34 -28 64 -35 66 -8 4 -11
19 -8 46 4 38 -8 54 -22 31z m-35 -352 c0 -31 -4 -59 -9 -62 -14 -9 -22 41
-15 95 9 65 24 45 24 -33z m233 -67 c6 -24 0 -31 -26 -31 -13 0 -17 5 -13 16
3 9 6 20 6 25 0 17 28 9 33 -10z m134 -213 c-3 -7 -5 -2 -5 12 0 14 2 19 5 13
2 -7 2 -19 0 -25z m78 -48 c-5 -9 -55 -1 -55 9 0 4 13 6 30 3 16 -2 28 -8 25
-12z"/>
</g>
</svg>
